<svg id="Capa_1" enable-background="new 0 0 512 512" height="512" viewBox="0 0 512 512" width="512" xmlns="http://www.w3.org/2000/svg"><g><g><g><path clip-rule="evenodd" d="m42.532 98.171c-5.416 0-7.768-2.665-7.768-7.768v-43.117c-.284-21.886 18.086-39.802 39.772-39.802h69.767v90.687z" fill="#febc99" fill-rule="evenodd"/></g><g><path clip-rule="evenodd" d="m114.338 436.112h279.629c5.328 0 7.768-2.183 7.768-7.768v-381.087c0-21.97-17.831-39.773-39.802-39.773-84.421 0-202.832 0-287.254 0 21.914.057 39.659 17.86 39.659 39.773v388.855z" fill="#ffeac5" fill-rule="evenodd"/></g><g><path clip-rule="evenodd" d="m369.701 436.112h24.266c5.328 0 7.768-2.183 7.768-7.768v-381.087c0-21.97-17.831-39.773-39.802-39.773h-24.267c21.97 0 39.774 17.803 39.774 39.773v381.087c0 5.585-2.438 7.768-7.739 7.768z" fill="#fcdab4" fill-rule="evenodd"/></g><g><path clip-rule="evenodd" d="m53.105 472.652v-65.002c0-27.441 13.892-51.793 34.953-66.392 6.804-4.706 6.55-7.002 6.55-11.878v-20.326h78.468v20.326c0 4.876-.256 7.172 6.548 11.878 21.091 14.6 34.953 38.951 34.953 66.392v65.002z" fill="#1480ae" fill-rule="evenodd"/></g><g><path clip-rule="evenodd" d="m148.809 309.054h24.268v20.326c0 4.876-.256 7.172 6.548 11.878 21.091 14.6 34.953 38.951 34.953 66.392v65.002h-24.266v-65.002c0-27.441-13.862-51.793-34.953-66.392-6.804-4.706-6.55-7.002-6.55-11.878z" fill="#047297" fill-rule="evenodd"/></g><g><path clip-rule="evenodd" d="m133.841 435.885c16.869 0 30.645-13.749 30.645-30.616s-13.776-30.645-30.645-30.645c-16.866 0-30.615 13.777-30.615 30.645 0 16.867 13.749 30.616 30.615 30.616z" fill="#fb9a67" fill-rule="evenodd"/></g><g><path clip-rule="evenodd" d="m133.841 374.625c16.926 0 30.645 13.721 30.645 30.645 0 16.896-13.72 30.616-30.645 30.616-4.309 0-8.418-.879-12.133-2.495 10.887-4.706 18.483-15.534 18.483-28.121 0-12.615-7.597-23.445-18.483-28.122 3.715-1.616 7.824-2.523 12.133-2.523z" fill="#f08851" fill-rule="evenodd"/></g><g><path clip-rule="evenodd" d="m85.309 313.901h97.065c4.281 0 7.768-3.486 7.768-7.767v-15.733c0-4.253-3.486-7.767-7.768-7.767h-97.065c-4.252 0-7.767 3.515-7.767 7.767v15.733c0 4.281 3.515 7.767 7.767 7.767zm-32.204 153.876h161.472c10.093 0 18.37 8.277 18.37 18.369 0 10.093-8.277 18.37-18.37 18.37h-161.472c-10.093 0-18.342-8.277-18.342-18.37.001-10.092 8.25-18.369 18.342-18.369z" fill="#0b5e7e" fill-rule="evenodd"/></g><g><path clip-rule="evenodd" d="m158.108 313.901h24.266c4.281 0 7.768-3.486 7.768-7.767v-15.733c0-4.253-3.486-7.767-7.768-7.767h-24.266c4.279 0 7.767 3.515 7.767 7.767v15.733c0 4.281-3.487 7.767-7.767 7.767zm32.203 153.876h24.266c10.093 0 18.37 8.277 18.37 18.369 0 10.093-8.277 18.37-18.37 18.37h-24.266c10.093 0 18.342-8.277 18.342-18.37 0-10.092-8.249-18.369-18.342-18.369z" fill="#034e6b" fill-rule="evenodd"/></g><g><path clip-rule="evenodd" d="m310.225 268.941c-.084-9.128 1.049-20.127 2.24-29.143 9.214-69.766 41.927-137.915 109.963-166.887 12.19-4.961 28.889-10.404 41.872-12.275 4.422-.624 7.059-.397 7.568.822.424 1.105-.852 2.976-4.195 5.726-7.286 6.01-13.183 11.879-18.993 19.759-2.325 3.147-3.942 6.01-3.77 7.711.34 3.232 21.885-.936 26.816.879 4.225 1.588 1.135 8.448.283 11.396-1.416 4.99-2.834 9.893-4.592 14.798-17.831 49.241-52.842 94.287-97.519 121.87-18.68 11.51-38.469 19.817-59.673 25.344z" fill="#b7d8fb" fill-rule="evenodd"/></g><g><path clip-rule="evenodd" d="m445.56 64.861c6.493-1.871 12.983-3.401 18.74-4.224 4.422-.624 7.059-.397 7.568.822.424 1.105-.852 2.976-4.195 5.726-7.286 6.01-13.21 11.879-18.993 19.759-2.325 3.147-3.942 6.01-3.77 7.711.34 3.232 21.885-.936 26.816.879 4.225 1.588 1.135 8.448.283 11.396-1.416 4.99-2.834 9.921-4.592 14.798-17.831 49.241-52.842 94.287-97.519 121.87-15.11 9.299-30.898 16.499-47.624 21.857 7.992-3.742 15.761-7.995 23.329-12.785 44.706-28.264 75.352-65.911 93.183-116.399 1.756-4.99 3.174-10.036 4.592-15.139.85-3.033 3.94-10.063-.313-11.68-4.904-1.842-26.449 2.411-26.789-.907-.17-1.729 1.445-4.677 3.771-7.909 5.783-8.08 16.073-22.622 23.358-28.802 3.316-2.807 4.622-4.735 4.195-5.869-.226-.565-.935-.934-2.04-1.104z" fill="#89c8fe" fill-rule="evenodd"/></g><g><path clip-rule="evenodd" d="m114.338 98.171v-50.914c0-21.999-17.802-39.745-39.802-39.773-4.109 0-8.135.624-12.077 1.899 16.019 5.132 27.611 20.156 27.611 37.874v50.914z" fill="#fb9a67" fill-rule="evenodd"/></g></g><g><path d="m222.062 428.6h172.16v-99.418c0-4.139 3.344-7.484 7.512-7.484 4.14 0 7.483 3.345 7.483 7.484v106.93c0 4.139-3.344 7.484-7.483 7.484h-179.672v17.803c4.139 1.247 7.822 3.515 10.771 6.492 4.706 4.677 7.597 11.14 7.597 18.256s-2.891 13.579-7.597 18.285c-4.678 4.678-11.141 7.569-18.257 7.569h-161.471c-7.116 0-13.579-2.891-18.258-7.569-4.676-4.706-7.596-11.169-7.596-18.285s2.92-13.579 7.596-18.256c2.978-2.977 6.663-5.245 10.772-6.492v-16.159c0-4.139 3.346-7.484 7.485-7.484 4.166 0 7.512 3.345 7.512 7.484v15.054h146.448v-24.182-28.462c0-13.494-3.657-26.109-10.036-36.966-6.548-11.113-15.987-20.411-27.27-26.817-2.496-1.22-4.195-3.771-4.195-6.719v-15.733h-63.443v15.733c0 2.637-1.389 5.16-3.828 6.548-11.452 6.408-21.006 15.762-27.639 26.988-6.379 10.857-10.036 23.472-10.036 36.966v3.628c0 4.139-3.346 7.484-7.512 7.484-4.14 0-7.485-3.345-7.485-7.484v-3.628c0-16.186 4.425-31.41 12.163-44.507 7.229-12.304 17.319-22.679 29.34-30.248v-11.481h-9.581c-4.139 0-7.484-3.373-7.484-7.512v-31.268c0-4.139 3.346-7.484 7.484-7.484h29.284v-169.495h-72.062c-4.139 0-7.512-3.345-7.512-7.484v-51.368c0-12.842 5.357-24.465 13.89-32.941 8.476-8.419 20.127-13.692 32.828-13.862h287.963c13.069 0 24.891 5.273 33.452 13.834 8.531 8.561 13.833 20.382 13.833 33.423v23.557c2.92-1.475 5.896-2.863 8.957-4.196 16.896-7.371 36.232-12.586 58.343-14.883 4.109-.426 7.795 2.58 8.191 6.69.283 2.779-.992 5.386-3.147 6.889-11.651 8.674-19.191 16.499-23.953 22.452.934-.028 1.842-.057 2.721-.057 5.528-.057 10.206.227 14.995.623 4.651.397 7.798 4.905 6.636 9.384-5.16 26.988-23.898 74.5-62.084 114.727-3.401 3.571-6.946 7.058-10.659 10.516v72.261c0 4.139-3.344 7.512-7.483 7.512-4.168 0-7.512-3.374-7.512-7.512v-59.475c-21.49 16.782-47.428 30.843-78.412 39.433-16.103 38.865-17.464 68.262-17.464 68.404-.227 4.139-3.77 7.286-7.88 7.059-4.139-.227-7.285-3.741-7.059-7.88 0-.171 1.502-32.544 19.333-74.84.113-9.809 2.41-87.682 47.541-147.44 2.494-3.289 7.172-3.969 10.488-1.475 3.288 2.495 3.94 7.201 1.445 10.489-25.456 33.735-36.371 73.735-41.047 102.225 16.073-26.619 38.949-54.543 71.493-79.461 3.289-2.523 7.994-1.899 10.488 1.389 2.524 3.288 1.9 7.995-1.389 10.489-38.213 29.256-62.338 62.735-77.56 92.813 32.57-11.198 61.26-30.021 84.818-54.826 32.43-34.131 49.864-73.564 56.498-99.39-1.701-.057-3.374-.113-5.075-.085-4.592.028-9.723.396-15.96 1.219-1.305.227-2.664.085-3.969-.425-3.855-1.532-5.697-5.897-4.168-9.725 0-.057 3.742-9.581 16.272-22.82-10.263 2.438-19.73 5.613-28.461 9.44-14.601 6.35-27.98 14.826-39.944 25.344-3.09 2.749-7.823 2.438-10.573-.652-2.721-3.119-2.438-7.852.68-10.574 6.097-5.386 12.729-10.432 19.902-15.053v-32.146c0-8.902-3.63-16.981-9.47-22.821-6.066-6.066-14.231-9.497-22.82-9.497h-252.866c8.25 8.788 12.757 20.297 12.757 32.318 0 75.973.029 151.918.029 227.893h68.291c4.14 0 7.513 3.345 7.513 7.484v31.268c0 4.139-3.373 7.512-7.513 7.512h-9.582v11.481c12.021 7.569 22.14 17.944 29.369 30.248 7.711 13.097 12.134 28.32 12.134 44.507zm-24.777-334.852c-4.139 0-7.483-3.345-7.483-7.484s3.345-7.512 7.483-7.512h41.643c4.168 0 7.512 3.373 7.512 7.512s-3.344 7.484-7.512 7.484zm-49.836 131.055c-4.139 0-7.512-3.345-7.512-7.484s3.373-7.512 7.512-7.512h141.344c4.14 0 7.485 3.373 7.485 7.512s-3.346 7.484-7.485 7.484zm0-29.114c-4.139 0-7.512-3.345-7.512-7.513 0-4.139 3.373-7.484 7.512-7.484h141.344c4.14 0 7.485 3.345 7.485 7.484 0 4.167-3.346 7.513-7.485 7.513zm0-29.114c-4.139 0-7.512-3.373-7.512-7.512s3.373-7.512 7.512-7.512h141.344c4.14 0 7.485 3.374 7.485 7.512 0 4.139-3.346 7.512-7.485 7.512zm0-29.142c-4.139 0-7.512-3.345-7.512-7.484s3.373-7.512 7.512-7.512h141.344c4.14 0 7.485 3.374 7.485 7.512 0 4.139-3.346 7.484-7.485 7.484zm143.414 242.379c-4.139 0-7.484-3.374-7.484-7.513 0-4.138 3.346-7.484 7.484-7.484h82.861c4.14 0 7.513 3.346 7.513 7.484 0 4.139-3.373 7.513-7.513 7.513zm-108.206-73.423v-16.243h-68.319-29.283v16.243zm-48.816 60.752c10.546 0 20.072 4.252 26.959 11.169 6.919 6.889 11.171 16.414 11.171 26.96 0 10.517-4.252 20.042-11.171 26.959-6.887 6.889-16.413 11.169-26.959 11.169-10.516 0-20.042-4.28-26.958-11.169-6.89-6.917-11.169-16.442-11.169-26.959 0-10.545 4.279-20.071 11.169-26.96 6.916-6.917 16.442-11.169 26.958-11.169zm16.357 21.771c-4.196-4.196-9.977-6.775-16.357-6.775-6.377 0-12.16 2.579-16.356 6.775-4.168 4.167-6.775 9.951-6.775 16.357 0 6.378 2.607 12.161 6.775 16.356 4.196 4.168 9.98 6.775 16.356 6.775 6.38 0 12.161-2.607 16.357-6.775 4.195-4.195 6.775-9.978 6.775-16.356.001-6.407-2.579-12.19-6.775-16.357zm64.379 86.378h-161.472c-2.977 0-5.671 1.219-7.655 3.203-1.955 1.956-3.203 4.677-3.203 7.654s1.248 5.698 3.203 7.654c1.984 1.985 4.679 3.204 7.655 3.204h161.472c2.977 0 5.697-1.219 7.655-3.204 1.984-1.956 3.203-4.677 3.203-7.654s-1.219-5.697-3.203-7.654c-1.958-1.985-4.678-3.203-7.655-3.203zm-117.191-450.854c-5.841-5.84-13.919-9.468-22.85-9.468-7.369 0-15.874 2.579-22.849 9.497-6.181 6.152-9.497 14.117-9.44 22.821v43.373h64.606l.029-43.401c.001-8.903-3.656-16.982-9.496-22.822z"/></g></g></svg>