<svg id="Layer_1" enable-background="new 0 0 512 512" height="512" viewBox="0 0 512 512" width="512" xmlns="http://www.w3.org/2000/svg"><path d="m469.333 76.8v273.067c0 42.634-34.62 76.8-76.8 76.8h-85.333l-51.2 85.333-51.2-85.333h-85.333c-42.411 0-76.8-34.389-76.8-76.8v-273.067c0-42.218 34.21-76.8 76.8-76.8h273.067c42.41 0 76.799 34.389 76.799 76.8z" fill="#4379ff"/><path d="m469.333 76.8v273.067c0 12.267-2.869 23.851-7.989 34.133h-341.877c-18.848 0-34.133-15.285-34.133-34.133v-341.878c10.282-5.12 21.866-7.989 34.133-7.989h273.067c42.41 0 76.799 34.389 76.799 76.8z" fill="#6994ff"/><path d="m375.783 282.786c6.665 6.665 6.665 17.471 0 24.136l-24.136 24.136c-26.663 26.663-96.898-.354-156.883-60.34s-87.002-130.221-60.34-156.883l24.136-24.136c6.665-6.665 17.471-6.665 24.136 0l42.238 42.238c6.665 6.665 6.665 17.471 0 24.136l-24.136 24.136c-6.667 6.667 6.841 30.977 30.17 54.306s47.638 36.837 54.306 30.17l24.136-24.136c6.665-6.665 17.471-6.665 24.136 0z" fill="#ffe773"/><g fill="#80aaff"><path d="m341.333 59.733c0 9.419 7.634 17.067 17.067 17.067h17.067c9.426 0 17.067 7.641 17.067 17.067v25.6c0 9.426 7.641 17.067 17.067 17.067 9.419 0 17.067-7.634 17.067-17.067v-25.6c0-28.277-22.923-51.2-51.2-51.2h-17.068c-9.426 0-17.067 7.641-17.067 17.066z"/><circle cx="409.6" cy="170.667" r="17.067"/></g></svg>