<svg enable-background="new 0 0 64 64" height="512" viewBox="0 0 64 64" width="512" xmlns="http://www.w3.org/2000/svg"><g id="Icons"><g><g><g><path d="m16 60h32c2.209 0 4-1.791 4-4v-44c0-2.209-1.791-4-4-4h-32c-2.209 0-4 1.791-4 4v44c0 2.209 1.791 4 4 4z" fill="#0a5078"/></g><g><path d="m16 59h32c1.105 0 2-.895 2-2v-44c0-1.105-.895-2-2-2h-32c-1.105 0-2 .895-2 2v44c0 1.105.895 2 2 2z" fill="#00325a"/></g><g><path d="m16 58h32c1.105 0 2-.895 2-2v-44c0-1.105-.895-2-2-2h-32c-1.105 0-2 .895-2 2v44c0 1.105.895 2 2 2z" fill="#f0f0f0"/></g><g><path d="m44 19c-1.105 0-2 .895-2 2h-20c0-1.105-.895-2-2-2s-2 .895-2 2v12c0 1.105.895 2 2 2s2-.895 2-2h8v4c-1.105 0-2 .895-2 2v12c0 2.209 1.791 4 4 4s4-1.791 4-4v-12c0-1.105-.895-2-2-2v-4h8c0 1.105.895 2 2 2s2-.895 2-2v-12c0-1.105-.895-2-2-2z" fill="#d2d2d2"/></g><g><path d="m26 9v-1c0-1.657 1.343-3 3-3h6c1.657 0 3 1.343 3 3v1h2c1.105 0 2 .895 2 2v2c0 1.105-.895 2-2 2h-16c-1.105 0-2-.895-2-2v-2c0-1.105.895-2 2-2z" fill="#d2d2d2"/></g><g><path d="m26 8v-1c0-1.657 1.343-3 3-3h6c1.657 0 3 1.343 3 3v1h2c1.105 0 2 .895 2 2v2c0 1.105-.895 2-2 2h-16c-1.105 0-2-.895-2-2v-2c0-1.105.895-2 2-2z" fill="#fab400"/></g><g><circle cx="39" cy="11" fill="#dc9600" r="1"/></g><g><circle cx="25" cy="11" fill="#dc9600" r="1"/></g></g><g><g><path d="m22 20h20v12h-20z" fill="#c80a50"/></g><g><path d="m44 34c1.105 0 2-.895 2-2v-12c0-1.105-.895-2-2-2-1.105 0-2 .895-2 2v12c0 1.105.895 2 2 2z" fill="#0a5078"/></g><g><path d="m20 34c1.105 0 2-.895 2-2v-12c0-1.105-.895-2-2-2-1.105 0-2 .895-2 2v12c0 1.105.895 2 2 2z" fill="#0a5078"/></g><g><path d="m30 32h4v4h-4z" fill="#c80a50"/></g><g><path d="m30 32h4v1h-4z" fill="#a00028"/></g><g><path d="m32 54c-2.209 0-4-1.791-4-4v-12c0-1.105.895-2 2-2h4c1.105 0 2 .895 2 2v12c0 2.209-1.791 4-4 4z" fill="#0a5078"/></g></g><g><path d="m25 38h-6c-.552 0-1 .448-1 1 0 .552.448 1 1 1h6c.552 0 1-.448 1-1 0-.552-.448-1-1-1z" fill="#d2d2d2"/></g><g><path d="m25 42h-6c-.552 0-1 .448-1 1 0 .552.448 1 1 1h6c.552 0 1-.448 1-1 0-.552-.448-1-1-1z" fill="#d2d2d2"/></g><g><path d="m25 46h-6c-.552 0-1 .448-1 1 0 .552.448 1 1 1h6c.552 0 1-.448 1-1 0-.552-.448-1-1-1z" fill="#d2d2d2"/></g><g><path d="m25 50h-6c-.552 0-1 .448-1 1 0 .552.448 1 1 1h6c.552 0 1-.448 1-1 0-.552-.448-1-1-1z" fill="#d2d2d2"/></g><g><path d="m45 38h-6c-.552 0-1 .448-1 1 0 .552.448 1 1 1h6c.552 0 1-.448 1-1 0-.552-.448-1-1-1z" fill="#d2d2d2"/></g><g><path d="m45 42h-6c-.552 0-1 .448-1 1 0 .552.448 1 1 1h6c.552 0 1-.448 1-1 0-.552-.448-1-1-1z" fill="#d2d2d2"/></g><g><path d="m45 46h-6c-.552 0-1 .448-1 1 0 .552.448 1 1 1h6c.552 0 1-.448 1-1 0-.552-.448-1-1-1z" fill="#d2d2d2"/></g><g><path d="m45 50h-6c-.552 0-1 .448-1 1 0 .552.448 1 1 1h6c.552 0 1-.448 1-1 0-.552-.448-1-1-1z" fill="#d2d2d2"/></g></g></g></svg>