<svg id="Capa_1" enable-background="new 0 0 512 512" height="512" viewBox="0 0 512 512" width="512" xmlns="http://www.w3.org/2000/svg"><g><g><path d="m173.096 424.512c1.036 0 1.876-.84 1.876-1.876 0-.815-.524-1.539-1.299-1.787-11.189-3.585-23.11-6.755-39.949-25.875-18.689-21.22-43.216-18.68-57.85-14.438-6.693 14.431-12.903 29.099-18.623 43.976z" fill="#e7ecf6"/></g><g><path d="m173.673 420.849c-11.189-3.585-23.11-6.755-39.949-25.875-18.573-21.089-42.907-18.71-57.572-14.516 10.559 3.138 21.16 9.24 30.624 19.986 10.616 12.054 19.744 19.282 27.994 24.068h38.327c1.036 0 1.876-.84 1.876-1.876-.001-.815-.524-1.539-1.3-1.787z" fill="#d5dff4"/></g><g><path d="m488.117.006c-24.844 1.813-122.403 11.238-208.22 51.575-2.197 1.033-4.013 2.732-5.217 4.84l-39.306 68.804c-1.038 1.817-3.798 1.247-4.014-.835-.825-7.941-1.707-22.728.2-41.224.187-1.811-1.808-3.033-3.32-2.018-57.589 38.663-122.041 85.765-158.56 150.378-.933 1.651-1.39 3.524-1.371 5.42.225 22.455 2.693 51.52 12.55 69.923.559 1.043-.762 2.08-1.658 1.308l-27.23-23.461c-1.259-1.085-3.217-.392-3.532 1.24-11.697 60.748 23.026 99.478 23.026 99.478l17.882-7.791 16.887.964 63.866-12.54c44.448-8.728 84.577-29.773 116.528-59.68 1.435-1.343.483-3.746-1.482-3.749-38.182-.066-65.766-6.902-77.997-10.635-2.089-.638-2-3.622.12-4.15l115.429-28.718c2.202-.548 4.114-1.932 5.282-3.877 8.797-14.652 16.08-30.373 21.626-46.966l12.783-38.245c14.962-44.765 40.814-85.11 75.233-117.408l52.122-48.911c1.479-1.389.398-3.869-1.627-3.722z" fill="#f6f1f1"/></g><g><g><path d="m488.117.006c-10.162.742-32.496 2.759-61.211 7.642l-44.077 41.362c-34.905 32.755-61.123 73.67-76.297 119.068l-12.964 38.786c-5.625 16.828-13.011 32.771-21.932 47.63-1.184 1.973-3.124 3.377-5.357 3.932l-117.061 29.124c-2.15.535-2.241 3.562-.122 4.209 12.403 3.786 40.377 10.719 79.099 10.785 1.993.003 2.958 2.441 1.503 3.803-32.403 30.33-73.099 51.673-118.176 60.524l-46.842 9.198c3.861 6.106 6.782 9.366 6.782 9.366l98.635-19.367c44.45-8.728 84.581-29.775 116.533-59.685 1.433-1.341.482-3.741-1.48-3.745-38.186-.065-65.772-6.901-78.003-10.635-2.089-.638-2-3.622.12-4.15l115.429-28.718c2.202-.548 4.114-1.932 5.282-3.877 8.797-14.652 16.08-30.373 21.626-46.966l12.783-38.245c14.962-44.765 40.815-85.11 75.233-117.408l52.121-48.91c1.482-1.39.401-3.87-1.624-3.723z" fill="#e7ecf6"/></g></g><g><path d="m437.621 52.638 52.121-48.91c1.012-.949.826-2.407-.039-3.188l-74.863 37.225c-89.243 44.376-168.306 105.581-233.185 179.64-44.053 50.287-80.181 106.866-107.823 167.564l15.515-7.326 16.887.964 63.866-12.54c44.45-8.728 84.581-29.775 116.533-59.685 1.433-1.341.482-3.741-1.48-3.745-38.186-.065-65.772-6.901-78.003-10.635-2.089-.638-2-3.622.12-4.15l115.429-28.718c2.202-.548 4.114-1.932 5.282-3.877 8.797-14.652 16.08-30.373 21.626-46.966l12.783-38.245c14.961-44.765 40.813-85.11 75.231-117.408z" fill="#e7ecf6"/></g><g><path d="m489.704.539-74.864 37.226c-15.362 7.639-30.414 15.788-45.152 24.404-28.379 30.293-49.951 66.403-63.155 105.909l-12.964 38.786c-5.625 16.828-13.011 32.771-21.932 47.63-1.184 1.973-3.124 3.377-5.357 3.932l-117.061 29.124c-2.15.535-2.241 3.562-.122 4.209 12.403 3.786 40.377 10.719 79.099 10.785 1.993.003 2.958 2.441 1.503 3.803-32.403 30.33-73.099 51.673-118.176 60.524l-32.192 6.321c-1.868 3.909-3.703 7.834-5.5 11.778l96.267-18.902c44.45-8.728 84.581-29.775 116.533-59.685 1.433-1.341.482-3.741-1.48-3.745-38.186-.065-65.772-6.901-78.003-10.635-2.089-.638-2-3.622.12-4.15l115.429-28.718c2.202-.548 4.114-1.932 5.282-3.877 8.797-14.652 16.08-30.373 21.626-46.966l12.783-38.245c14.962-44.765 40.815-85.11 75.233-117.408l52.121-48.91c1.012-.95.827-2.408-.038-3.19z" fill="#d5dff4"/></g><g><path d="m484.18 511.998h-94.137c-14.142 0-28.168-4.664-39.493-13.132-13.564-10.141-31.372-13.378-47.638-8.66l-44.406 12.883c-20.936 6.071-43.483 2.831-61.859-8.897l-27.376-17.472c-22.804-14.554-51.532-15.207-74.974-1.706l-60.749 34.99c-3.578 2.061-8.151.832-10.213-2.748-2.061-3.579-.831-8.151 2.748-10.213l60.749-34.99c28.291-16.295 62.964-15.505 90.486 2.059l27.376 17.472c14.746 9.412 32.839 12.015 49.644 7.141l44.406-12.883c20.746-6.02 43.462-1.889 60.762 11.046 8.757 6.548 19.602 10.154 30.536 10.154h94.137c4.13 0 7.479 3.348 7.479 7.479s-3.348 7.477-7.478 7.477z" fill="#335995"/></g><path d="m344.883 77.253c-2.253-3.461-6.886-4.44-10.348-2.188-53.46 34.803-102.483 76.242-145.707 123.166-2.467 2.678-4.927 5.399-7.374 8.133v-22.405c0-4.13-3.348-7.479-7.479-7.479-4.13 0-7.479 3.348-7.479 7.479v39.649c-51.493 61.396-91.919 131.606-120.253 208.916l-25.443 69.422c-1.421 3.878.57 8.174 4.448 9.596.85.311 1.718.459 2.573.459 3.048 0 5.912-1.878 7.022-4.907l25.443-69.422c13.576-37.043 29.991-72.414 49.114-105.923h35.899c4.13 0 7.479-3.348 7.479-7.479s-3.348-7.479-7.479-7.479h-27.116c20.281-33.518 43.354-65.073 69.097-94.459 4.108-4.69 8.331-9.39 12.549-13.968 16.84-18.281 34.591-35.698 53.142-52.21h38.534c4.13 0 7.479-3.348 7.479-7.479s-3.348-7.479-7.479-7.479h-21.209c23.034-19.28 47.208-37.198 72.4-53.598 3.46-2.251 4.44-6.884 2.187-10.345z" fill="#d5dff4"/></g></svg>