<svg id="Capa_1" enable-background="new 0 0 512 512" height="512" viewBox="0 0 512 512" width="512" xmlns="http://www.w3.org/2000/svg" xmlns:xlink="http://www.w3.org/1999/xlink"><linearGradient id="SVGID_1_" gradientUnits="userSpaceOnUse" x1="256" x2="256" y1="511.982" y2=".018"><stop offset="0" stop-color="#009efd"/><stop offset="1" stop-color="#2af598"/></linearGradient><g><g><path d="m496 395.982c-33.084 0-60-26.916-60-60v-120c0-92.492-70.126-168.901-160-178.883v-37.081h-40v37.081c-89.874 9.982-160 86.391-160 178.883v120c0 33.084-26.916 60-60 60h-16v40h196v16c0 33.084 26.916 60 60 60s60-26.916 60-60v-16h196v-40zm-220 56c0 11.028-8.972 20-20 20s-20-8.972-20-20v-16h40zm-180.051-56c12.583-16.725 20.051-37.506 20.051-60v-120c0-77.196 62.804-140 140-140s140 62.804 140 140v120c0 22.494 7.468 43.275 20.051 60z" fill="url(#SVGID_1_)"/></g></g></svg>