<svg id="Layer_1" enable-background="new 0 0 512 512" height="512" viewBox="0 0 512 512" width="512" xmlns="http://www.w3.org/2000/svg"><g><g><path d="m331.311 481.88c-99.633 0-180.69-81.058-180.69-180.69s81.056-180.69 180.69-180.69c99.632 0 180.689 81.057 180.689 180.689 0 30.281-7.6 60.065-22.023 86.491l10.968 65.884c.796 4.777-.765 9.645-4.189 13.069-3.426 3.425-8.294 4.98-13.069 4.19l-65.884-10.968c-26.429 14.426-56.21 22.025-86.492 22.025z" fill="#64e1dc"/></g><path d="m331.35 120.5v361.379c30.268-.007 60.035-7.604 86.451-22.023l65.884 10.968c4.775.79 9.644-.766 13.069-4.19 3.425-3.425 4.985-8.292 4.189-13.069l-10.968-65.884c14.425-26.426 22.025-56.21 22.025-86.492 0-99.619-81.035-180.667-180.65-180.689z" fill="#00c8c7"/><g><path d="m409.645 316.189h-156.589c-8.284 0-15-6.716-15-15s6.716-15 15-15h156.588c8.284 0 15 6.716 15 15s-6.715 15-14.999 15z" fill="#414952"/></g><g><path d="m409.645 382.068h-156.589c-8.284 0-15-6.716-15-15s6.716-15 15-15h156.588c8.284 0 15 6.716 15 15s-6.715 15-14.999 15z" fill="#414952"/></g><g><path d="m409.645 250.312h-156.589c-8.284 0-15-6.716-15-15s6.716-15 15-15h156.588c8.284 0 15 6.716 15 15s-6.715 15-14.999 15z" fill="#23272b"/></g><path d="m409.645 352.068h-78.295v30h78.294c8.284 0 15-6.716 15-15s-6.715-15-14.999-15z" fill="#23272b"/><path d="m409.645 286.189h-78.295v30h78.294c8.284 0 15-6.716 15-15s-6.715-15-14.999-15z" fill="#23272b"/><path d="m180.69 30.12c-99.633 0-180.69 81.058-180.69 180.691 0 30.281 7.6 60.065 22.023 86.491l-10.967 65.883c-.795 4.777.765 9.645 4.19 13.069 3.424 3.424 8.292 4.981 13.069 4.19l65.884-10.968c26.426 14.424 56.21 22.023 86.491 22.023 99.632 0 180.69-81.057 180.69-180.689s-81.058-180.69-180.69-180.69z" fill="#f5fafc"/><path d="m361.38 210.811c0-99.633-81.058-180.69-180.69-180.69v361.379c99.632 0 180.69-81.057 180.69-180.689z" fill="#dbeeff"/><g><path d="m180.69 260.646c-8.284 0-15-6.716-15-15v-44.2c0-8.284 6.716-15 15-15 12.538 0 22.737-10.2 22.737-22.737s-10.2-22.737-22.737-22.737-22.737 10.2-22.737 22.737c0 8.284-6.716 15-15 15s-15-6.716-15-15c0-29.079 23.658-52.737 52.737-52.737s52.737 23.658 52.737 52.737c0 23.87-15.942 44.088-37.737 50.564v31.373c0 8.285-6.716 15-15 15z" fill="#414952"/></g><g><g><path d="m180.69 310.649c7.846 0 15.363-6.899 15-15-.364-8.127-6.591-15-15-15-7.846 0-15.363 6.899-15 15 .364 8.127 6.591 15 15 15z" fill="#414952"/></g></g><g fill="#23272b"><path d="m180.69 280.649v30c7.846 0 15.363-6.899 15-15-.364-8.127-6.591-15-15-15z"/><path d="m203.427 163.709c0 12.537-10.2 22.737-22.737 22.737v74.2c8.284 0 15-6.716 15-15v-31.373c21.795-6.477 37.737-26.694 37.737-50.564 0-29.079-23.658-52.737-52.737-52.737v30c12.538 0 22.737 10.2 22.737 22.737z"/></g></g></svg>